<svg id="Group_55187" data-name="Group 55187" xmlns="http://www.w3.org/2000/svg" width="24" height="24" viewBox="0 0 24 24">
  <rect id="Rectangle_18390" data-name="Rectangle 18390" width="24" height="24" fill="none"/>
  <g id="Rectangle_24311" data-name="Rectangle 24311" transform="translate(4 4)" fill="#fff" stroke="#1a73e8" stroke-linecap="round" stroke-width="1.6">
    <rect width="16" height="16" rx="2" stroke="none"/>
    <rect x="0.8" y="0.8" width="14.4" height="14.4" rx="1.2" fill="none"/>
  </g>
  <path id="Rectangle_24311_-_Outline" data-name="Rectangle 24311 - Outline" d="M2,1.6a.4.4,0,0,0-.4.4V14a.4.4,0,0,0,.4.4H14a.4.4,0,0,0,.4-.4V2a.4.4,0,0,0-.4-.4H2M2,0H14a2,2,0,0,1,2,2V14a2,2,0,0,1-2,2H2a2,2,0,0,1-2-2V2A2,2,0,0,1,2,0Z" transform="translate(4 4)" fill="#707070"/>
  <path id="Path_38009" data-name="Path 38009" d="M1.778,0H14.222A1.778,1.778,0,0,1,16,1.778V14.222A1.778,1.778,0,0,1,14.222,16H1.778A1.778,1.778,0,0,1,0,14.222V1.778A1.778,1.778,0,0,1,1.778,0Z" transform="translate(4 4)" fill="#2979ff"/>
  <g id="_24px_d-check" data-name="24px_d-check" transform="translate(6.541 8.166)">
    <g id="Group_45370" data-name="Group 45370">
      <path id="Path_34163" data-name="Path 34163" d="M8.573,14.255a.736.736,0,0,1-.521-.216L4.586,10.573,5.627,9.532l2.946,2.946,5.891-5.891,1.041,1.041L9.094,14.039A.736.736,0,0,1,8.573,14.255Z" transform="translate(-4.586 -6.586)" fill="#fff"/>
    </g>
  </g>
</svg>
