<svg xmlns="http://www.w3.org/2000/svg" xmlns:xlink="http://www.w3.org/1999/xlink" width="500" height="500" viewBox="0 0 500 500">
  <defs>
    <linearGradient id="linear-gradient" y1="0.864" x2="1" y2="0.132" gradientUnits="objectBoundingBox">
      <stop offset="0" stop-color="#ff6d00"/>
      <stop offset="1" stop-color="#ff5722"/>
    </linearGradient>
    <linearGradient id="linear-gradient-2" x1="0.5" y1="0.006" x2="0.5" y2="0.989" gradientUnits="objectBoundingBox">
      <stop offset="0" stop-color="#fff"/>
      <stop offset="0.724" stop-color="#fff"/>
      <stop offset="1" stop-color="#d2d2d2"/>
    </linearGradient>
    <linearGradient id="linear-gradient-3" x1="0.947" y1="0.973" x2="0.35" y2="0.233" gradientUnits="objectBoundingBox">
      <stop offset="0" stop-color="#fff"/>
      <stop offset="0.748" stop-color="#fff"/>
      <stop offset="1" stop-color="#d2d2d2"/>
    </linearGradient>
  </defs>
  <g id="Group_26" data-name="Group 26" transform="translate(-171.03 -559.566)">
    <rect id="Rectangle_14" data-name="Rectangle 14" width="500" height="500" rx="96" transform="translate(171.03 559.566)" fill="url(#linear-gradient)"/>
    <path id="Path_31" data-name="Path 31" d="M523.693,581.108c13.63,0,19.3,17.441,8.277,25.449l-93.933,68.259-23.611,17.119-15.334,11.192-40.729,29.592-93.906,68.205c-11.03,8.008-25.871-2.771-21.656-15.737l27.054-83.181,154.023-74.411L255.812,658.2l-71.084-51.644c-11.03-8.008-5.362-25.449,8.268-25.449Z" transform="translate(62.692 171.628)" fill="#fff"/>
    <path id="Path_32" data-name="Path 32" d="M282.533,672.462l-30.875-95.027c-4.215-12.966-22.544-12.966-26.767-.009l-30.919,95.036Z" transform="translate(182.784 64.878)" fill="url(#linear-gradient-2)"/>
    <path id="Path_33" data-name="Path 33" d="M271.85,593.293l-3.417,2.483L244.823,612.9l-15.334,11.191-29.1,21.145L281,703.824c11.03,8.017,25.871-2.762,21.656-15.729Z" transform="translate(233.918 268.71)" fill="url(#linear-gradient-3)"/>
  </g>
</svg>
