<svg id="Group_55187" data-name="Group 55187" xmlns="http://www.w3.org/2000/svg" width="24" height="24" viewBox="0 0 24 24">
  <rect id="Rectangle_18390" data-name="Rectangle 18390" width="24" height="24" fill="none"/>
  <rect id="Rectangle_24311" data-name="Rectangle 24311" width="16" height="16" rx="2" transform="translate(4 4)" fill="#fff"/>
  <path id="Path_96791" data-name="Path 96791" d="M1.778,0H14.222A1.778,1.778,0,0,1,16,1.778V14.222A1.778,1.778,0,0,1,14.222,16H1.778A1.778,1.778,0,0,1,0,14.222V1.778A1.778,1.778,0,0,1,1.778,0Z" transform="translate(4 4)" fill="#2979ff" opacity="0.5"/>
  <g id="_24px_d-check" data-name="24px_d-check" transform="translate(6.541 8.166)">
    <g id="Group_45370" data-name="Group 45370">
      <path id="Path_34163" data-name="Path 34163" d="M8.573,14.255a.736.736,0,0,1-.521-.216L4.586,10.573,5.627,9.532l2.946,2.946,5.891-5.891,1.041,1.041L9.094,14.039A.736.736,0,0,1,8.573,14.255Z" transform="translate(-4.586 -6.586)" fill="#fff"/>
    </g>
  </g>
</svg>
