<svg id="settings" xmlns="http://www.w3.org/2000/svg" width="24" height="24" viewBox="0 0 24 24">
  <g id="Group_32775" data-name="Group 32775">
    <path id="Path_34518" data-name="Path 34518" d="M0,0H24V24H0Z" fill="none"/>
    <g id="Group_53716" data-name="Group 53716" transform="translate(351.286 -381)">
      <g id="ic_live_help_48px" transform="translate(-353 380)">
        <g id="Group_53713" data-name="Group 53713" transform="translate(6 4)">
          <path id="Path_95395" data-name="Path 95395" d="M19.714,4h-12A1.714,1.714,0,0,0,6,5.714v12a1.714,1.714,0,0,0,1.714,1.714h3.429L13.714,22l2.571-2.571h3.429a1.714,1.714,0,0,0,1.714-1.714v-12A1.714,1.714,0,0,0,19.714,4Z" transform="translate(-6 -4)" fill="none" stroke="#182d4b" stroke-linecap="round" stroke-linejoin="round" stroke-width="2"/>
        </g>
      </g>
      <g id="Group_53715" data-name="Group 53715" transform="translate(-1561 311)">
        <path id="Path_34154" data-name="Path 34154" d="M10,9.228A2.123,2.123,0,0,1,12,7a2.123,2.123,0,0,1,2,2.228h0a3.72,3.72,0,0,1-.886,2.472l-.813.9a1.284,1.284,0,0,0-.3.85V14" transform="translate(1210 69)" fill="none" stroke="#182d4b" stroke-linecap="round" stroke-linejoin="round" stroke-width="2"/>
        <circle id="Ellipse_2326" data-name="Ellipse 2326" cx="1" cy="1" r="1" transform="translate(1221 85)" fill="#182d4b"/>
      </g>
    </g>
  </g>
</svg>
