<svg id="search" xmlns="http://www.w3.org/2000/svg" width="24" height="24" viewBox="0 0 24 24">
  <rect id="Rectangle_2" data-name="Rectangle 2" width="24" height="24" fill="none"/>
  <path id="Path_1" data-name="Path 1" d="M-69.261-74.523l-3.022-3.013a7.04,7.04,0,0,0,1.5-4.355A7.11,7.11,0,0,0-77.889-89,7.11,7.11,0,0,0-85-81.889a7.11,7.11,0,0,0,7.109,7.109,7.04,7.04,0,0,0,4.356-1.5l3.013,3.022a.893.893,0,0,0,1.262,0A.893.893,0,0,0-69-73.891.893.893,0,0,0-69.261-74.523ZM-83.223-81.89a5.332,5.332,0,0,1,5.332-5.332,5.332,5.332,0,0,1,5.332,5.332,5.332,5.332,0,0,1-5.332,5.332A5.332,5.332,0,0,1-83.223-81.89Z" transform="translate(89 93)" fill="#182d4b" stroke="#182d4b" stroke-width="0.2"/>
</svg>
